<svg width="22" height="22" viewBox="0 0 22 22" fill="none" xmlns="http://www.w3.org/2000/svg">
<path d="M16.882 18.2966C15.1232 19.4121 13.0828 20.0029 11 19.9996C5.60803 19.9996 1.12203 16.1196 0.18103 10.9996C0.61106 8.6703 1.78266 6.54247 3.52103 4.93358L0.39203 1.80758L1.80703 0.392578L21.606 20.1926L20.191 21.6066L16.881 18.2966H16.882ZM4.93503 6.34958C3.57604 7.58517 2.62935 9.20836 2.22303 10.9996C2.53532 12.366 3.16229 13.6407 4.05403 14.7222C4.94577 15.8036 6.07766 16.662 7.35958 17.2289C8.64151 17.7958 10.0381 18.0556 11.4381 17.9877C12.8382 17.9198 14.203 17.5259 15.424 16.8376L13.396 14.8096C12.5327 15.3534 11.5102 15.5877 10.4963 15.474C9.48231 15.3604 8.53707 14.9055 7.8156 14.184C7.09413 13.4625 6.63926 12.5173 6.52559 11.5033C6.41193 10.4894 6.64621 9.46689 7.19003 8.60358L4.93503 6.34958ZM11.914 13.3276L8.67203 10.0856C8.49409 10.5385 8.45222 11.0335 8.55154 11.5099C8.65085 11.9863 8.88705 12.4234 9.23115 12.7675C9.57525 13.1116 10.0123 13.3478 10.4887 13.4471C10.9651 13.5464 11.4601 13.5045 11.913 13.3266L11.914 13.3276ZM19.807 15.5916L18.376 14.1616C19.0445 13.2089 19.5204 12.1348 19.777 10.9996C19.5053 9.8093 18.9943 8.68672 18.2752 7.70007C17.5561 6.71342 16.6438 5.88331 15.5939 5.26018C14.544 4.63706 13.3783 4.23395 12.1678 4.07534C10.9572 3.91674 9.72704 4.00596 8.55203 4.33758L6.97403 2.75958C8.22103 2.26958 9.58003 1.99958 11 1.99958C16.392 1.99958 20.878 5.87958 21.819 10.9996C21.5126 12.6653 20.8239 14.2372 19.807 15.5916ZM10.723 6.50758C11.3595 6.46824 11.9971 6.56464 12.5936 6.7904C13.19 7.01615 13.7316 7.36609 14.1826 7.81703C14.6335 8.26797 14.9835 8.8096 15.2092 9.40604C15.435 10.0025 15.5314 10.6401 15.492 11.2766L10.722 6.50758H10.723Z" fill="#8E93A6"/>
</svg>