<?xml version="1.0" encoding="UTF-8" standalone="no"?>
<svg xmlns:dc="http://purl.org/dc/elements/1.1/" xmlns:cc="http://creativecommons.org/ns#" xmlns:rdf="http://www.w3.org/1999/02/22-rdf-syntax-ns#" xmlns:svg="http://www.w3.org/2000/svg" xmlns="http://www.w3.org/2000/svg" id="svg2" viewBox="0 0 327 290" style="clip-rule:evenodd;fill-rule:evenodd;image-rendering:optimizeQuality;shape-rendering:geometricPrecision;text-rendering:geometricPrecision;" version="1.1" height="290" width="327" xml:space="preserve"><metadata id="metadata47"><rdf:RDF><cc:Work rdf:about=""><dc:format>image/svg+xml</dc:format><dc:type rdf:resource="http://purl.org/dc/dcmitype/StillImage"/><dc:title/></cc:Work></rdf:RDF></metadata><defs id="defs4"><style id="style6" type="text/css"><![CDATA[
    .fil0 {fill:#FEFEFE}
    .fil1 {fill:#C3C3C3}
   ]]></style><mask id="id0"><linearGradient y2="311.12701" x2="260.88101" y1="297.38599" x1="220.854" gradientUnits="userSpaceOnUse" id="id1"><stop id="stop10" style="stop-opacity:1; stop-color:white" offset="0"/><stop id="stop12" style="stop-opacity:0; stop-color:white" offset="1"/></linearGradient><rect id="rect14" height="106.551" width="78.457199" y="251" x="202" style="fill:url(#id1)"/></mask><mask id="id2"><linearGradient y2="98.626999" x2="247.646" y1="131.58701" x1="213.42" gradientUnits="userSpaceOnUse" id="id3"><stop id="stop18" style="stop-opacity:1; stop-color:white" offset="0"/><stop id="stop20" style="stop-opacity:0; stop-color:white" offset="1"/></linearGradient><rect id="rect22" height="100.493" width="57.786701" y="65" x="202" style="fill:url(#id3)"/></mask><mask id="id4"><linearGradient y2="191.03799" x2="220.478" y1="250.287" x1="213.382" gradientUnits="userSpaceOnUse" id="id5"><stop id="stop26" style="stop-opacity:1; stop-color:white" offset="0"/><stop id="stop28" style="stop-opacity:0; stop-color:white" offset="1"/></linearGradient><rect id="rect30" height="159.40401" width="84.991096" y="141" x="174" style="fill:url(#id5)"/></mask></defs><g transform="translate(-36,-66)" id="Слой_x0020_1"><metadata id="CorelCorpID_0Corel-Layer"/><g id="_487010788000"><polygon style="fill:#fefefe" id="polygon35" points="203,330 203,310 203,252 258,252 258,310 363,310 363,356 203,356 " class="fil0"/><path mask="url(#id0)" id="path37" d="m 279,356 -76,0 0,-26 0,-20 0,-58 55,0 0,58 c 1,22 8,38 21,46 z" style="fill:#c3c3c3" class="fil1"/><path style="fill:#fefefe" id="path39" d="m 144,302 c 26,0 59,-3 59,-37 l 0,-199 55,0 0,213 c 1,57 -67,77 -114,77 C 99,356 36,333 36,279 l 0,-213 56,0 0,199 c 0,31 27,37 52,37 z" class="fil0"/><path mask="url(#id2)" id="path41" d="m 203,164 c 20,-26 38,-54 55,-83 l 0,-15 -55,0 0,98 z" style="fill:#c3c3c3" class="fil1"/><path mask="url(#id4)" id="path43" d="m 176,299 c 31,-4 69,-59 82,-114 l 0,-43 -55,44 0,72 0,7 c 0,20 -11,29 -25,34 -1,0 -2,0 -2,0 l 0,0 z" style="fill:#c3c3c3" class="fil1"/></g></g></svg>