<svg width="32" height="32" viewBox="0 0 32 32" fill="none" xmlns="http://www.w3.org/2000/svg">
<path d="M16 4C22.6 4 28 9.4 28 16C28 22.6 22.6 28 16 28C9.4 28 4 22.6 4 16C4 9.4 9.4 4 16 4ZM16 2C8.3 2 2 8.3 2 16C2 23.7 8.3 30 16 30C23.7 30 30 23.7 30 16C30 8.3 23.7 2 16 2Z" fill="#B4B4B4"/>
<g filter="url(#filter0_d_97_249)">
<path d="M24 15H17V8H15V15H8V17H15V24H17V17H24V15Z" fill="#B4B4B4"/>
</g>
<defs>
<filter id="filter0_d_97_249" x="4" y="8" width="24" height="24" filterUnits="userSpaceOnUse" color-interpolation-filters="sRGB">
<feFlood flood-opacity="0" result="BackgroundImageFix"/>
<feColorMatrix in="SourceAlpha" type="matrix" values="0 0 0 0 0 0 0 0 0 0 0 0 0 0 0 0 0 0 127 0" result="hardAlpha"/>
<feOffset dy="4"/>
<feGaussianBlur stdDeviation="2"/>
<feComposite in2="hardAlpha" operator="out"/>
<feColorMatrix type="matrix" values="0 0 0 0 0 0 0 0 0 0 0 0 0 0 0 0 0 0 0.25 0"/>
<feBlend mode="normal" in2="BackgroundImageFix" result="effect1_dropShadow_97_249"/>
<feBlend mode="normal" in="SourceGraphic" in2="effect1_dropShadow_97_249" result="shape"/>
</filter>
</defs>
</svg>
